<svg xmlns="http://www.w3.org/2000/svg" width="22" height="20"><path fill="#fff" d="M21.265.424a2.03 2.03 0 01.693 1.97l-3.263 16.017a2.054 2.054 0 01-2.008 1.633c-.45 0-.886-.15-1.24-.427l-4.031-3.122-2.702 2.983-.152.128a.994.994 0 01-.205.115c-.022.01-.04.022-.063.03a.992.992 0 01-.302.052l-.018.003c-.068 0-.136-.007-.203-.02l-.006-.003h-.012a.986.986 0 01-.38-.187.988.988 0 01-.212-.216c-.008-.011-.02-.02-.027-.032a.997.997 0 01-.118-.252l-2.02-6.682-3.626-1.26a2.043 2.043 0 01-.104-3.82L19.186.1a2.048 2.048 0 012.079.325zm-10.196 9.608L7.004 12.15l.784 2.593.31-1.504a.994.994 0 01.272-.506zM20 1.995L2.021 9.187l3.724 1.363L15.91 5.258a1 1 0 011.17 1.593l-7.084 7.083-.306 1.487.866-.955a1 1 0 011.353-.12l4.763 3.69z"/></svg>