<svg xmlns="http://www.w3.org/2000/svg" width="22" height="22"><path fill="#fff" d="M16.391 14.326a1 1 0 11-1.474 1.352L13.27 13.88a3.55 3.55 0 00-1.614-1.005v2.126a.987.987 0 01-.108.433.992.992 0 01-.16.237c-.014.015-.023.032-.038.045a.99.99 0 01-.24.176c-.01.005-.02.002-.03.007a.982.982 0 01-.425.102.995.995 0 01-.35-.07.956.956 0 01-.108-.055.98.98 0 01-.128-.064 13.333 13.333 0 01-5.4-8.644 1 1 0 111.972-.334 11.307 11.307 0 003.01 5.984V7.93A.995.995 0 0110 6h.003l.654.002a.944.944 0 01.152.031c.08.007.16.023.236.049.027.011.046.034.072.048.09.043.173.1.246.167.02.02.028.048.046.069a.992.992 0 01.167.249c.016.056.028.113.035.17.022.07.037.143.043.217v3.679a5.86 5.86 0 003.02-3.903 1 1 0 111.951.444 7.873 7.873 0 01-2.859 4.471c.357.24.686.52.978.836zM14.073 0C20.223 0 22 1.78 22 7.938v6.135C22 20.222 20.22 22 14.062 22H7.928C1.777 22 0 20.22 0 14.062V7.928C0 1.778 1.78 0 7.938 0zM20 7.938C20 2.888 19.114 2 14.073 2H7.938C2.888 2 2 2.887 2 7.927v6.136C2 19.113 2.886 20 7.927 20h6.136c5.05 0 5.937-.887 5.937-5.927z"/></svg>