<svg xmlns="http://www.w3.org/2000/svg" width="24" height="24"><path fill="#fff" d="M18.07 14.728c.083.478.022.97-.174 1.414a3.06 3.06 0 01-2.015 1.411 4.106 4.106 0 01-1.88-.116 17.649 17.649 0 01-1.703-.627 13.286 13.286 0 01-5.1-4.487 5.763 5.763 0 01-1.22-3.076A3.32 3.32 0 017.024 6.77a1.097 1.097 0 01.796-.373c.198 0 .397.002.571.01.185.01.43-.068.673.51.248.596.845 2.059.92 2.208a.546.546 0 01.025.52 2.035 2.035 0 01-.299.497c-.148.173-.313.387-.447.52-.15.148-.305.309-.132.606a8.96 8.96 0 001.662 2.06 8.165 8.165 0 002.4 1.474c.299.149.473.125.647-.073.175-.198.748-.87.947-1.166.198-.297.397-.248.671-.148.274.098 1.743.818 2.04.967.3.149.498.222.572.347zm2.433-11.244a11.884 11.884 0 013.268 6.092 11.86 11.86 0 01-.681 6.873 11.912 11.912 0 01-4.401 5.338 11.994 11.994 0 01-6.638 2.008h-.005c-1.995 0-3.959-.498-5.71-1.448L0 24l1.695-6.163A11.85 11.85 0 01.331 9.568a11.89 11.89 0 014.45-7.112 11.99 11.99 0 0115.722 1.028zm.61 12.46a9.845 9.845 0 00-1.839-10.83 9.943 9.943 0 00-5.005-2.852 9.975 9.975 0 00-5.752.397 9.926 9.926 0 00-4.56 3.512 9.852 9.852 0 00-.32 10.98l.235.375-1.003 3.649 3.76-.982.362.213a9.95 9.95 0 005.055 1.38h.005a9.977 9.977 0 005.277-1.512z"/></svg>