<svg xmlns="http://www.w3.org/2000/svg" width="60" height="54"><path fill="#444" d="M27.117 5.78c-.756.14-1.133-.275-1.245-.84-.15-.754.172-4.552.172-4.552s1.751 3.385 1.901 4.14c.113.565-.074 1.102-.828 1.252zm-2.757.836c-.714.285-1.164-.048-1.385-.581-.294-.71-.719-4.498-.719-4.498s2.378 2.979 2.672 3.689c.221.533.142 1.096-.568 1.39zm-2.54 1.358c-.645.419-1.152.18-1.472-.3-.427-.64-1.583-4.271-1.583-4.271S21.68 5.86 22.105 6.5c.321.479.354 1.047-.286 1.474zm-2.227 1.827c-.55.537-1.095.401-1.502-.007-.544-.543-2.386-3.88-2.386-3.88s3.337 1.842 3.88 2.385c.409.408.551.959.008 1.502zm-1.828 2.227c-.435.634-.995.607-1.474.286-.64-.427-3.097-3.34-3.097-3.34s3.632 1.155 4.272 1.582c.479.32.726.833.3 1.472zm-1.358 2.541c-.303.707-.857.789-1.39.568-.71-.294-3.689-2.672-3.689-2.672s3.788.425 4.498.719c.533.22.875.675.581 1.385zm-.837 2.756c-.158.753-.686.942-1.252.83-.754-.15-4.139-1.902-4.139-1.902s3.798-.323 4.552-.173c.565.113.99.491.84 1.245zm-.281 2.867c-.01.77-.49 1.057-1.067 1.057-.769 0-4.43-1.057-4.43-1.057s3.661-1.057 4.43-1.057c.577 0 1.067.288 1.067 1.057zm.282 2.868c.14.755-.274 1.132-.84 1.244-.754.15-4.552-.172-4.552-.172s3.385-1.752 4.14-1.902c.565-.112 1.102.075 1.252.83zm.836 2.756c.286.714-.048 1.164-.58 1.385-.711.294-4.499.719-4.499.719s2.979-2.378 3.689-2.673c.533-.22 1.096-.141 1.39.569zm1.358 2.54c.42.645.18 1.152-.3 1.472-.639.427-4.27 1.583-4.27 1.583s2.456-2.914 3.096-3.341c.48-.32 1.047-.353 1.474.286zm1.828 2.227c.537.55.4 1.094-.007 1.502-.544.544-3.88 2.385-3.88 2.385s1.841-3.336 2.385-3.88c.408-.408.958-.55 1.502-.007zm2.227 1.827c.633.436.606.996.286 1.475-.427.64-3.34 3.097-3.34 3.097s1.155-3.632 1.582-4.272c.32-.48.832-.727 1.471-.3zm2.54 1.359c.707.303.79.857.569 1.39-.295.71-2.673 3.689-2.673 3.689s.425-3.788.72-4.498c.22-.533.674-.876 1.384-.581zm13.788-1.359c.644-.419 1.15-.18 1.471.3.427.64 1.583 4.272 1.583 4.272s-2.914-2.458-3.34-3.097c-.321-.48-.354-1.047.286-1.474zm2.226-1.827c.55-.537 1.095-.4 1.502.007.544.544 2.386 3.88 2.386 3.88s-3.337-1.841-3.88-2.385c-.409-.408-.551-.958-.008-1.502zm1.828-2.227c.435-.634.995-.606 1.474-.286.64.427 3.097 3.34 3.097 3.34s-3.632-1.155-4.271-1.582c-.48-.32-.727-.832-.3-1.472zm1.358-2.54c.303-.707.857-.79 1.39-.569.71.295 3.689 2.673 3.689 2.673s-3.788-.425-4.498-.72c-.533-.22-.875-.674-.581-1.384zm.836-2.756c.16-.753.687-.942 1.253-.83.754.15 4.139 1.902 4.139 1.902s-3.798.322-4.552.172c-.565-.112-.99-.49-.84-1.245zm.283-2.868c.01-.768.49-1.057 1.066-1.057.77 0 4.431 1.057 4.431 1.057s-3.662 1.058-4.43 1.058c-.577 0-1.067-.289-1.067-1.058zm-.283-2.867c-.14-.756.275-1.132.84-1.245.754-.15 4.552.173 4.552.173s-3.385 1.751-4.14 1.901c-.565.113-1.102-.075-1.252-.829zm-.836-2.756c-.286-.714.048-1.164.58-1.385.711-.294 4.499-.719 4.499-.719s-2.979 2.378-3.689 2.672c-.533.22-1.096.142-1.39-.568zm-1.358-2.541c-.42-.644-.18-1.151.3-1.471.639-.428 4.27-1.583 4.27-1.583s-2.456 2.913-3.096 3.34c-.48.321-1.047.354-1.474-.286zm-1.828-2.227c-.536-.55-.4-1.094.007-1.501.544-.544 3.88-2.386 3.88-2.386s-1.841 3.337-2.385 3.88c-.407.408-.958.551-1.502.007zM30 33.146c-7.145 0-12.937-5.792-12.937-12.937S22.855 7.27 30 7.27s12.938 5.793 12.938 12.938c0 7.145-5.793 12.937-12.938 12.937zm-.017-27.649c-.768-.01-1.057-.49-1.057-1.066 0-.77 1.057-4.431 1.057-4.431s1.058 3.662 1.058 4.43c0 .577-.289 1.067-1.058 1.067zm-2.866 29.108c.752.16.941.687.829 1.252-.15.754-1.902 4.14-1.902 4.14s-.322-3.798-.172-4.552c.112-.566.49-.99 1.245-.84zm2.867.282c.768.01 1.057.49 1.057 1.067 0 .769-1.057 4.43-1.057 4.43s-1.058-3.661-1.058-4.43c0-.577.289-1.067 1.058-1.067zm2.866-.282c.756-.14 1.133.275 1.245.84.15.754-.172 4.552-.172 4.552s-1.751-3.385-1.901-4.14c-.113-.565.074-1.102.828-1.252zm2.757-.836c.714-.286 1.164.048 1.385.58.294.711.719 4.499.719 4.499s-2.378-2.979-2.672-3.69c-.22-.532-.142-1.095.568-1.39zm2.541-25.795c-.634-.435-.607-.995-.287-1.474.427-.64 3.34-3.097 3.34-3.097s-1.155 3.632-1.582 4.271c-.32.48-.832.727-1.471.3zm-2.541-1.358c-.706-.303-.789-.858-.568-1.39.294-.71 2.672-3.69 2.672-3.69s-.425 3.788-.719 4.499c-.22.533-.674.875-1.385.58zM32.85 5.78c-.752-.16-.94-.687-.828-1.253.15-.754 1.9-4.14 1.9-4.14s.323 3.799.173 4.553c-.112.565-.49.99-1.245.84z"/><path fill="#444" d="M30.434 42.784c-.135.096.153.295.223.446.087.188.16.383.248.57.044.094.101.182.15.274.042.081.082.165.123.248.033.066.057.137.1.198.033.048.067.14.123.124.124-.036.195-.17.298-.248.104-.08.21-.157.322-.223a4.73 4.73 0 01.72-.323c.13-.041.264-.066.397-.099.33-.082.457-.123.793-.174a24.54 24.54 0 011.29-.124c.29-.016.58-.012.868-.024.757-.033.898-.046 1.637-.15.312-.043.566-.091.868-.173.076-.02.15-.05.224-.074.074-.025.15-.045.223-.075a3.74 3.74 0 00.372-.198c.262-.16.295-.187.546-.372.1-.074.202-.144.297-.223.17-.141.82-.772.844-.794.19-.182.378-.366.57-.546.188-.176.38-.347.57-.52.174-.158.342-.321.521-.472.078-.065.166-.116.248-.173.083-.058.161-.124.248-.174a2.45 2.45 0 01.447-.174c.14-.037.283-.06.422-.099.126-.035.248-.083.372-.124.124-.041.25-.075.372-.124.127-.05.248-.116.372-.174.107-.05.218-.092.322-.148.111-.06.216-.13.323-.199.24-.154.343-.228.57-.397.277-.205.304-.216.546-.446.085-.08.165-.166.248-.248.319-.319.36-.351.72-.77.152-.177.3-.36.446-.545.535-.684 1.277-1.696 1.835-2.356.17-.201.362-.383.546-.57.299-.306.577-.59.893-.869.105-.093.211-.186.322-.273.113-.087.232-.164.347-.248.125-.09.238-.198.373-.272.045-.026.139.088.148.099.027.031.055.063.075.099.032.058.118.327.124.347.01.033-.01.095.025.1.027.003.29-.135.322-.15.04-.018.264-.117.322-.123.107-.012.216-.011.323 0 .015.001.347.094.347.124 0 .094-.116.148-.173.223-.076.099-.153.196-.224.297-.199.288-.26.408-.421.72-.15.291-.241.462-.348.769-.022.064-.03.133-.05.198-.014.05-.037.098-.049.149-.013.057-.02.115-.025.174-.003.049-.043.125 0 .148.08.044.182 0 .273 0 .356 0 .73-.115 1.067 0 .113.039-.13.2-.199.298a6.983 6.983 0 01-.47.595c-.088.095-.183.182-.274.273l-.273.273c-.09.09-.177.186-.272.273-.087.079-.18.152-.273.223-.08.061-.26.074-.248.174.011.09.181.017.273.024.123.01.248.013.372.025.124.013.247.036.372.05.09.01.253-.064.272.025.022.097-.145.136-.223.198-.088.07-.182.132-.273.199-.1.073-.197.15-.297.223a7.138 7.138 0 01-.645.421c-.106.061-.21.125-.323.174-.095.042-.197.069-.297.1-.09.027-.182.05-.273.074-.041.01-.083.015-.124.025a1.715 1.715 0 00-.1.024c-.024.008-.051.012-.074.025-.02.012-.033.033-.05.05-.008.008-.022.013-.024.025a.277.277 0 000 .099c.003.018.018.032.025.05.018.048.037.097.05.148.011.049.014.1.024.149.017.085.035.093.025.174-.005.041-.016.083-.025.124-.007.033-.01.068-.025.099-.01.02-.031.035-.05.05a.8.8 0 01-.173.099c-.04.013-.084.012-.124.024-.043.013-.083.034-.124.05l-.124.05c-.041.016-.085.028-.124.05-.036.02-.067.048-.1.074-.008.007-.02.013-.024.025-.013.04-.002.052.025.074.032.026.066.05.099.074.033.025.068.048.1.075.04.036.177.176.198.223.013.03-.004.066 0 .1.004.033.024.064.024.098 0 .043-.017.083-.024.124-.01.05.017.121-.025.15-.124.082-.28.1-.422.148-.148.05-.296.103-.446.149-.065.02-.134.03-.199.05-.13.04-.229.084-.347.148-.042.023-.157.04-.124.075.241.25.618.36.818.645.058.081-.141.141-.223.198-.085.06-.18.101-.273.149-.114.06-.228.123-.347.174-.132.056-.62.215-.744.248-.122.031-.248.047-.372.074-.108.023-.213.061-.322.074-.099.012-.286-.098-.298 0-.014.112.18.136.273.199.114.077.228.153.347.223.121.071.252.125.372.198.096.06.265.087.273.199.007.1-.16.123-.248.174-.112.065-.232.115-.347.173-.283.141-.58.294-.869.422-.808.36-1.449.628-2.281.942-1.024.387-1.422.509-2.456.844-.182.058-.362.12-.546.173-.164.047-.33.081-.496.124-.15.04-.296.089-.446.124-.131.031-.532.075-.397.075.272 0 1.256-.132 1.538-.174.457-.068.988-.16 1.438-.273.234-.058.464-.13.695-.198.544-.158.785-.225 1.314-.422.21-.078.414-.164.62-.248.406-.164.813-.326 1.216-.496.382-.16.76-.333 1.14-.496.182-.077.365-.149.547-.223.181-.075.363-.151.545-.223.173-.069.348-.133.521-.199.174-.066.368-.093.521-.198.04-.028-.08-.055-.124-.075-.048-.021-.1-.032-.149-.05-.066-.023-.13-.054-.198-.074-.073-.021-.15-.028-.224-.05a11.352 11.352 0 01-.47-.148c-.142-.047-.536-.053-.422-.149.192-.163.496-.079.744-.124.34-.062.68-.121 1.017-.198.168-.04.33-.1.496-.15.14-.041.282-.077.421-.123.06-.02.117-.048.174-.075a2.08 2.08 0 00.273-.149.374.374 0 00.074-.074c.005-.007.004-.017 0-.025-.018-.037-.068-.034-.099-.05-.027-.013-.047-.037-.074-.049-.172-.078-.285-.095-.472-.149-.198-.057-.398-.11-.595-.173-.167-.054-.65-.09-.496-.174.36-.199.81-.153 1.215-.223.121-.021.981-.137 1.29-.223.057-.016.282-.093.372-.15.035-.021.066-.05.1-.074.023-.016.133-.074.123-.124-.005-.029-.046-.04-.074-.05-.072-.023-.148-.035-.223-.049-.107-.02-.216-.03-.323-.05-.124-.022-.247-.054-.372-.074-.131-.021-.266-.023-.397-.05-.118-.023-.231-.066-.347-.099a3.897 3.897 0 01-.322-.099c-.037-.019-.066-.05-.1-.074-.033-.025-.122-.04-.099-.075.04-.059.133-.05.199-.074.066-.025.13-.056.198-.075.081-.022.166-.033.248-.05.083-.016.165-.036.248-.049.19-.029.38-.05.57-.074.19-.025.382-.042.571-.075.101-.017.198-.052.298-.074.09-.02.184-.025.273-.05.093-.025.182-.066.273-.099.187-.068.35-.116.52-.223.08-.05.15-.114.224-.174.141-.116.276-.218.347-.397.007-.017-.032-.019-.05-.024a.465.465 0 00-.223-.025c-.066.005-.132.02-.198.025-.149.011-.298.017-.447.024-.165.01-.33.013-.496.025-.182.013-.363.042-.546.05-.23.009-.463.006-.694 0a.9.9 0 01-.347-.075c-.035-.013-.131-.03-.1-.05.185-.11.398-.163.596-.247.265-.114.531-.227.793-.348.152-.07.297-.15.447-.223.156-.076.316-.145.471-.223.159-.08.314-.165.471-.248.158-.083.317-.16.472-.248.354-.2.54-.332.868-.57.134-.098.268-.195.397-.298.119-.095.236-.193.347-.298.055-.052.097-.117.149-.173.047-.052.104-.095.149-.15.073-.088.14-.226.198-.322.031-.05.074-.094.1-.149.038-.084.06-.228.074-.322.009-.058.063-.13.024-.174-.037-.044-.115-.003-.173 0-.067.005-.134.009-.199.025-.068.017-.132.05-.198.075-.066.024-.136.04-.198.074-.138.074-.263.169-.397.248-.147.086-.3.163-.447.248-.067.039-.131.085-.198.124a2.827 2.827 0 01-.447.223c-.065.027-.13.055-.198.075a2.279 2.279 0 01-.422.074c-.074.005-.15.013-.223 0-.07-.012-.241-.018-.198-.074.15-.198.402-.291.595-.447a87.83 87.83 0 001.438-1.24 33.801 33.801 0 002.258-2.331c.115-.135.213-.283.322-.422.106-.134.22-.26.323-.397.063-.084.457-.668.52-.769.02-.031.043-.063.05-.1.024-.128.008-.15-.025-.247-.008-.025-.008-.054-.025-.075-.018-.023-.051-.03-.074-.05-.063-.052-.073-.09-.149-.123-.031-.014-.066-.017-.099-.025s-.065-.022-.1-.025c-.153-.013-.188-.005-.322.025-.033.007-.068.01-.099.025-.037.018-.068.047-.1.074-.026.023-.049.05-.074.075l-.446.446c-.174.174-.35.345-.52.521-.185.188-.36.384-.547.57a17.81 17.81 0 01-1.19 1.092c-.197.168-.392.337-.595.496-.095.073-.198.133-.298.198-.225.147-.322.215-.57.323-.09.038-.182.13-.273.099-.074-.025.138-.074.198-.124.081-.067.149-.149.223-.223.1-.1.203-.195.298-.298.231-.25.99-1.175 1.042-1.24.424-.529.806-1.017 1.19-1.563.127-.18.251-.362.372-.545.119-.18.23-.365.348-.546.113-.175.235-.345.347-.52.103-.164.2-.33.297-.497.086-.147.174-.293.248-.446.067-.137.115-.282.174-.422.055-.13.161-.31.174-.471.007-.095.018-.188-.025-.273-.013-.027-.033-.05-.05-.075-.016-.024-.03-.05-.05-.074a.4.4 0 00-.123-.1c-.056-.022-.116-.031-.174-.049-.05-.015-.097-.044-.149-.05a2.244 2.244 0 00-.347 0c-.034.002-.066.016-.1.025a.641.641 0 00-.173.075c-.028.02-.048.05-.074.074-.065.06-.138.11-.199.174-.072.077-.133.165-.198.248-.15.19-.307.374-.447.57-.166.234-.31.483-.47.72-.178.26-.364.513-.547.768-.189.266-.375.533-.57.794-.095.128-.198.248-.298.372-.288.361-.284.384-.62.695-.112.103-.369.448-.347.297.043-.303.283-.544.422-.818.159-.313.316-.627.47-.943.221-.448.28-.582.472-1.041.16-.38.292-.7.422-1.092.063-.188.114-.38.173-.57.057-.183.124-.362.174-.546.067-.245.188-.84.223-1.091.024-.173.037-.347.05-.521.012-.165.025-.33.025-.496 0-.033-.045-.427-.05-.472-.017-.153-.025-.298-.074-.446-.01-.028-.037-.048-.05-.074-.012-.024-.01-.053-.025-.075-.02-.029-.05-.05-.074-.074-.017-.017-.03-.038-.05-.05a1.155 1.155 0 00-.173-.074c-.057-.02-.114-.041-.174-.05a.799.799 0 00-.174 0 .747.747 0 00-.223.05c-.017.007-.036.011-.05.025a.559.559 0 00-.049.124c-.083.264-.171.527-.248.793-.08.28-.15.562-.223.844-.076.289-.148.579-.224.868-.073.281-.148.562-.223.843-.074.281-.135.566-.223.843-.086.27-.197.53-.298.794a7.208 7.208 0 01-.322.744 5.86 5.86 0 01-.199.347c-.07.118-.196.483-.223.348-.048-.24.105-.479.15-.72.038-.214.064-.43.098-.644.032-.2.073-.396.1-.596.023-.18.031-.364.05-.545.025-.268.074-.62.074-.893 0-.116-.016-.232-.025-.348-.008-.099-.012-.199-.025-.297a1.366 1.366 0 00-.124-.446c-.012-.028-.033-.05-.05-.075-.037-.055-.048-.084-.099-.124a.323.323 0 00-.149-.075c-.213-.017-.23-.009-.421.075-.068.03-.17.03-.199.1-.104.25-.115.528-.173.793-.147.661-.181.847-.373 1.488a22.911 22.911 0 01-.744 2.084c-.097.24-.191.482-.297.719-.22.49-.36.742-.596 1.19-.082.157-.162.316-.248.472-.087.159-.181.314-.272.47-.091.158-.177.318-.273.472-.095.152-.199.298-.298.447-.1.149-.196.3-.298.446-.104.15-.215.298-.322.447-.107.148-.21.3-.322.446-.509.66-.658.827-1.216 1.439-.213.233-.423.469-.645.694-.217.221-.444.432-.67.645-.229.217-.456.437-.694.645a25.127 25.127 0 01-2.753 2.059c-.26.162-.853.498-1.116.645-.181.1-.361.203-.546.297-.287.146-.578.283-.868.422-.28.134-.558.274-.843.397-.294.125-.594.235-.893.347-.494.185-1.225.447-1.737.595-.517.15-1.235.31-1.76.422-.29.06-.578.125-.869.174-.304.05-.611.086-.917.124-.649.08-1.158.13-1.811.173-.306.02-.669-.128-.918.05zm-2.257 7.54l-.422.05-.198.074-.05.025v.025h.05l.05.024.396.075h.323l1.041-.075 1.265-.024 1.365-.025 1.413.025.67.024.67.05.595.05.57.05.472.074.422.099.148.05.15.05.123.049.1.074-.05-.248-.1-.248.174.05.174.05.149.074.149.074.124.074.099.1.074.124.025.124.074-.174.05-.149.025-.173.025-.15-.025-.123-.025-.149-.025-.124-.074-.124-.05-.1-.1-.123-.098-.1-.1-.099-.272-.173-.298-.174a2.32 2.32 0 01-.52.223 1.455 1.455 0 01-.522-.05.67.67 0 01-.967-.049.574.574 0 01-.124-.198 1.119 1.119 0 010-.496l-.298-.025-.347-.05-.372-.099-.397-.1-.397-.074-.372-.099-.347-.05-.298-.024.124.099.298.223.347.273.248.174-.322.074-.273.05.198.223.199.223.198.223.15.199-.2.074-.198.05-.223.05h-.446l-.224-.05-.223-.05-.174-.099-.198.1-.198.074-.199.05-.198.049-.447.05-.471.049z"/><path fill="#444" d="M35.792 48.91l-.075.025-.074.025-.025.074-.025.075.025.074.025.074.074.05h.174l.05-.05.049-.074.025-.074-.025-.075-.05-.074-.05-.025z"/><path fill="#444" d="M35.816 49.01l-.05.024-.024.05.025.05.05.024.049-.025.025-.05-.025-.049z"/><path fill="#444" d="M35.8 49.351a.227.227 0 100-.455.227.227 0 000 .455z"/><path fill="#444" d="M17.486 51.614c.057.016.116.016.174.025.05.007.099.024.149.024.042 0 .083-.016.124-.024.041-.009.084-.013.124-.025.043-.013.083-.032.124-.05.065-.029.168-.085.223-.124.068-.047.133-.099.199-.149l.198-.148c.033-.025.063-.055.1-.075a.886.886 0 01.222-.074c.042-.005.1-.034.125 0 .103.14.147.315.223.471.146.3.222.504.397.744.03.043.061.087.099.124.03.03.066.05.1.075.08.06.119.103.222.124.105.02.155-.008.248-.05.05-.023.105-.041.15-.074.023-.018.032-.05.049-.075.016-.025.035-.048.05-.074.029-.052.083-.17.099-.224.02-.073.034-.148.05-.223.01-.05-.026-.141.024-.149.064-.009.103.079.149.124.155.155.154.19.273.372.101.158.198.306.322.447.054.062.116.116.174.174.033.033.062.07.099.099a.86.86 0 00.248.124c.05.018.098.038.149.05.024.005.05-.004.074 0 .042.005.082.024.124.024.05 0 .183-.034.223-.074.108-.108.197-.234.298-.347.105-.118.165-.348.323-.348.137 0 .142.236.223.348.076.104.162.2.248.297.038.044.083.083.124.124.041.042.08.085.124.124.09.082.143.116.248.174.09.05.117.064.223.074a.467.467 0 00.323-.074c.028-.02.05-.048.074-.075.035-.04.074-.077.1-.124l.098-.297c.032-.084.071-.164.1-.248.013-.04.011-.084.024-.124a.42.42 0 01.05-.1.14.14 0 01.05-.049c.014-.007.04-.014.05 0 .234.356.437.733.669 1.091.066.103.16.137.273.174.064.022.132.033.198.05.066.016.131.041.199.05a.93.93 0 00.223 0c.06-.008.116-.031.173-.05a.16.16 0 00.05-.025.477.477 0 00.075-.075.112.112 0 00.024-.05.403.403 0 000-.099c-.03-.364-.09-.726-.099-1.09 0-.027.05.014.075.024.034.015.066.033.099.05.033.016.07.027.099.05.037.027.067.064.1.098.067.074.131.15.198.224.074.082.15.163.223.248.076.089.14.19.223.272.083.084.182.15.273.224l.248.198c.116.074.148.079.273.1.057.009.115.024.173.024.043 0 .084-.013.124-.025a.154.154 0 00.05-.024.184.184 0 00.05-.05c.029-.049.028-.095.024-.149-.006-.107-.012-.215-.024-.322-.013-.108-.034-.215-.05-.323-.009-.058-.025-.115-.025-.173 0-.05.017-.1.025-.15.008-.049.007-.101.025-.148.024-.062.034-.187.1-.174.087.018.095.151.148.224.08.11.16.218.248.322.116.137.49.528.62.645.053.047.116.083.174.124.058.041.11.09.173.124.046.025.1.032.15.05.04.015.079.043.123.05.018.002.032-.022.05-.026.024-.005.051.01.074 0 .022-.008.033-.033.05-.05.008-.008.018-.015.025-.024a.322.322 0 00.074-.149c.005-.033-.004-.066 0-.1.005-.041.025-.081.025-.123 0-.314-.262-.736-.025-.943.188-.164.41.285.62.422.246.16.492.321.744.471.054.032.117.048.174.075.067.03.13.071.198.099.056.022.116.034.174.05.066.017.132.032.198.05.058.015.114.04.174.049.09.013.26-.005.347-.025.051-.012.134 0 .149-.05.006-.019-.138-.346-.149-.372-.025-.058-.044-.118-.074-.173l-.199-.298c-.033-.05-.061-.103-.099-.149-.037-.045-.083-.083-.124-.124-.041-.041-.079-.087-.124-.124a4.631 4.631 0 00-.595-.397 3.408 3.408 0 00-.695-.273 5.07 5.07 0 00-.372-.099c-.14-.03-.28-.05-.421-.074-.32-.057-.52-.1-.844-.124a27.057 27.057 0 00-.918-.05c-1.234-.05-1.3-.009-2.827-.025-.04 0-.864-.046-.918-.05-.149-.008-.298-.011-.446-.024a7.417 7.417 0 01-.844-.124 6.036 6.036 0 01-.744-.174c-.119-.04-.232-.097-.347-.149-.108-.048-.22-.089-.323-.148-.097-.057-.181-.133-.272-.199-.091-.066-.192-.12-.273-.198-.085-.081-.227-.156-.223-.273.006-.185.23-.312.248-.496.006-.067-.133-.013-.199-.025a1.183 1.183 0 01-.198-.05c-.172-.064-.225-.12-.372-.223-.062-.043-.102-.058-.15-.124-.02-.03-.03-.067-.049-.099-.014-.026-.038-.047-.05-.074a.33.33 0 01-.024-.1.647.647 0 010-.173c.007-.037.083-.084.05-.1-.13-.06-.28-.054-.422-.074a7.94 7.94 0 00-.918-.074 8.494 8.494 0 00-.496 0 45.67 45.67 0 00-2.059.124c-.356.033-.71.086-1.066.124-.347.036-.695.065-1.042.099-.339.033-.677.073-1.017.1-.314.023-.653-.073-.943.049-.106.045-.005.231 0 .347.003.05.013.1.025.149.013.05.033.1.05.149.016.048.07.221.1.273.014.025.165.215.173.223.055.06.11.122.173.173.12.097.299.202.447.248.08.026.165.034.248.05.09.017.18.045.273.05.091.004.182-.016.273-.025.218-.02.308-.018.52-.1.087-.032.166-.082.248-.123.083-.042.172-.073.248-.124.074-.05.135-.114.199-.174.068-.064.136-.268.198-.198.094.105-.01.281 0 .421.014.183.047.364.075.546.03.205.055.327.124.52a.36.36 0 00.05.1c.02.029.051.047.074.074.019.023.028.054.05.075a.714.714 0 00.247.124zm19.769-2.406c.028-.017.005-.155-.025-.273a.87.87 0 00-.124-.248c-.036-.046-.083-.083-.124-.124-.05-.05-.095-.104-.149-.149-.114-.095-.214-.128-.347-.198-.075-.04-.147-.086-.223-.124-.207-.104-.571-.233-.744-.298l-1.19-.446c-.2-.08-.399-.164-.596-.248-.092-.04-.182-.083-.273-.124-.09-.042-.184-.078-.273-.124a3.085 3.085 0 01-.248-.15c-.209-.135-.37-.267-.57-.42-.108-.084-.22-.16-.323-.249-.097-.085-.182-.182-.273-.273-.09-.09-.184-.179-.272-.273-.177-.187-.35-.377-.521-.57-.152-.171-.296-.35-.447-.521a12.717 12.717 0 00-.868-.918c-.105-.101-.214-.199-.322-.297-.15-.138-.254-.244-.422-.348-.101-.062-.13-.068-.223-.099-.025-.008-.049-.023-.075-.025-.264-.022-.53-.024-.793-.05-.258-.024-.513-.066-.77-.099-.568-.072-1-.114-1.562-.223l-1.538-.347c-.25-.066-.496-.149-.744-.223-.248-.075-.498-.142-.744-.223-.3-.1-.595-.215-.893-.323-.298-.107-.6-.203-.893-.322-.294-.12-.579-.265-.868-.397-.29-.133-.585-.253-.868-.397-.188-.096-.364-.215-.546-.323-.182-.107-.365-.211-.546-.322-.183-.113-.364-.23-.545-.347a26.6 26.6 0 01-2.034-1.464 19.7 19.7 0 01-.72-.595c-.237-.208-.464-.428-.694-.645-.225-.213-.452-.424-.67-.645-.22-.225-.432-.46-.644-.694-.557-.612-.708-.78-1.216-1.439-.112-.145-.215-.298-.322-.446-.108-.15-.218-.296-.323-.447-.102-.147-.198-.297-.297-.446-.1-.15-.204-.295-.298-.447-.096-.154-.182-.314-.273-.471-.09-.157-.185-.312-.273-.471-.086-.156-.165-.314-.248-.472-.235-.447-.376-.7-.595-1.19a42.456 42.456 0 01-.57-1.414c-.087-.23-.17-.462-.249-.694-.16-.474-.3-.928-.421-1.414-.064-.255-.117-.513-.174-.77-.059-.264-.07-.543-.173-.793-.029-.068-.13-.073-.199-.1-.064-.023-.133-.03-.198-.049-.072-.02-.074-.037-.15-.024-.025.004-.049.016-.074.024l-.074.025c-.025.008-.052.011-.074.025a.198.198 0 00-.05.05c-.019.023-.033.05-.05.074-.016.025-.037.047-.05.074-.07.155-.1.276-.123.447-.014.098-.017.198-.025.297-.009.116-.025.232-.025.348 0 .273.048.625.075.893.017.181.026.364.05.545.025.2.067.397.098.596.035.214.06.43.1.645.043.24.194.478.148.719-.024.128-.155-.21-.223-.323-.073-.12-.134-.247-.198-.372-.06-.115-.122-.228-.174-.347-.056-.13-.099-.264-.149-.397-.099-.264-.212-.524-.297-.793-.088-.278-.15-.563-.224-.844-.074-.28-.15-.562-.223-.843-.167-.64-.264-1.055-.446-1.687-.08-.274-.165-.546-.248-.818-.002-.006-.034-.112-.05-.124-.02-.016-.05-.015-.074-.025-.017-.007-.032-.02-.05-.025a.975.975 0 00-.322-.025c-.06.009-.117.03-.174.05-.06.021-.119.044-.174.074-.02.012-.033.033-.05.05-.054.055-.089.08-.123.149a.36.36 0 00-.025.074c-.018.074-.037.148-.05.223-.012.074-.016.15-.024.224-.005.044-.05.439-.05.47 0 .166.013.332.025.497.013.174.025.348.05.52.035.253.156.848.223 1.092.05.184.117.364.173.546.06.19.111.382.174.57.13.391.262.712.421 1.092.073.174.146.348.224.52.08.176.165.348.248.521.149.315.29.633.446.943.14.277.389.513.447.819.028.15-.236-.195-.348-.298a4.802 4.802 0 01-.322-.323c-.106-.118-.196-.25-.298-.372-.105-.126-.222-.241-.322-.372-.198-.258-.384-.526-.57-.793a35.84 35.84 0 01-.521-.77c-.16-.238-.306-.485-.472-.719-.14-.196-.297-.38-.446-.57-.066-.083-.126-.171-.199-.248-.06-.064-.133-.115-.198-.174-.026-.023-.046-.054-.074-.074a.64.64 0 00-.174-.075c-.033-.009-.065-.023-.1-.024a2.314 2.314 0 00-.347 0c-.06.005-.117.028-.173.05-.052.02-.098.051-.149.074-.024.01-.052.011-.074.024-.04.024-.077.09-.1.124-.016.025-.036.048-.05.075-.042.086-.031.178-.024.273a.555.555 0 00.025.124c.037.117.076.234.124.347.13.312.276.574.446.868.097.167.2.33.298.496.108.182.207.369.322.546.117.179.25.346.372.52.126.181.246.366.372.546.385.545.767 1.035 1.191 1.563.049.06.812.992 1.042 1.24.095.103.198.199.297.298.075.074.147.151.224.223.055.052.246.125.173.149-.087.03-.165-.083-.248-.124-.099-.05-.2-.094-.297-.149-.094-.053-.183-.115-.273-.174-.1-.065-.204-.125-.298-.198-.204-.159-.399-.328-.595-.496-.472-.403-.749-.65-1.19-1.091-.187-.186-.362-.383-.546-.57-.172-.177-.348-.348-.521-.522-.149-.149-.294-.3-.447-.446-.03-.029-.068-.048-.099-.075-.027-.022-.043-.058-.074-.074-.038-.019-.083-.016-.124-.025-.034-.007-.066-.022-.1-.025a.662.662 0 00-.297.025c-.035.013-.065.035-.1.05-.023.01-.052.01-.074.025-.029.019-.047.051-.074.074-.023.019-.056.026-.075.05-.016.02-.016.05-.025.074-.011.035-.05.142-.05.174a.74.74 0 00.075.173c.08.126.165.249.248.372.09.133.177.269.273.397.102.136.217.263.323.397.11.139.207.287.322.422a33.79 33.79 0 002.257 2.331 88.244 88.244 0 001.439 1.24c.193.156.445.25.595.447.043.056-.129.062-.198.074-.074.013-.15.005-.224 0a1.68 1.68 0 01-.396-.074 2.777 2.777 0 01-.447-.174c-.069-.036-.131-.084-.198-.124-.074-.043-.15-.081-.224-.124a22.637 22.637 0 01-.421-.248c-.134-.08-.26-.174-.397-.248-.062-.034-.132-.05-.199-.074-.183-.07-.185-.086-.372-.1-.057-.004-.146-.05-.173 0-.051.095-.013.216 0 .323.026.215.103.38.198.57.047.093.092.187.15.273.058.088.129.168.197.248.2.234.26.29.497.496.097.085.193.172.297.248.235.172.477.336.72.496.27.179.546.346.818.521.307.198.612.397.918.596.33.214.68.402.992.645.03.022-.066.033-.1.05-.088.044-.117.069-.223.074a5.901 5.901 0 01-.446 0c-.108-.004-.215-.023-.322-.025a12.275 12.275 0 00-.695 0 .186.186 0 00-.074.025c-.057.028-.1.052-.1.124 0 .077.055.096.1.148.056.066.078.123.148.174.073.053.347.213.422.248.155.072.312.14.471.198.155.057.315.099.472.15.149.048.296.103.446.148.156.046.315.081.471.124.175.048.348.099.521.149.199.057.399.11.596.174.06.019.115.05.173.074.058.025.186.013.174.074-.013.067-.132.037-.199.05-.106.02-.214.038-.322.05l-.769.05c-.124.003-.248-.005-.372 0a1.924 1.924 0 00-.446.049c-.034.007-.07.01-.1.025-.02.01-.033.033-.05.05-.008.008-.03.014-.024.024.05.083.145.127.223.174.042.024.081.052.124.074.057.028.116.05.174.075.123.05.246.105.372.148.138.048.28.086.421.124.523.141.532.128 1.092.248l.67.15c.223.049.463.05.67.148.063.03-.131.054-.2.074a3.026 3.026 0 01-.644.124c-.115.013-.232.013-.347.025a6.776 6.776 0 00-.348.05c-.09.014-.183.026-.272.05-.036.009-.066.034-.1.049-.024.01-.052.011-.074.025-.02.012-.033.033-.05.05-.008.008-.03.014-.024.024a.222.222 0 00.074.075c.074.053.192.077.273.099.066.018.13.04.198.05.165.023.331.03.496.05.183.02.364.05.546.074.207.026.415.04.62.074.2.033.398.08.595.124.251.056.335.08.57.174.076.03.154.058.224.099.071.042.206.066.198.149-.007.084-.147.086-.223.124-.073.036-.15.064-.223.099-.067.031-.13.07-.198.099a2.349 2.349 0 01-.199.074c-.131.044-.268.072-.397.125-.137.055-.458.063-.397.198.109.236.448.263.67.397.216.13.427.27.645.397.514.3.817.46 1.364.694.171.073.347.134.521.199.469.174.607.233 1.091.347.581.136.688.135 1.29.198.248.026.495.063.744.075.158.007 1.62-.002 1.712-.025.17-.043-.348-.045-.521-.075-.06-.01-.896-.179-.967-.198-.152-.04-.298-.098-.447-.149a22.805 22.805 0 01-.818-.297c-.24-.1-.519-.246-.744-.372a13.15 13.15 0 01-1.216-.745 17.49 17.49 0 01-.52-.372c-.143-.105-.326-.174-.422-.322-.046-.07.033-.165.05-.248.016-.083.027-.167.049-.248.02-.076.053-.148.074-.223.02-.074.117-.188.05-.224-.139-.073-.315.01-.471 0a2.032 2.032 0 01-.348-.05c-.06-.014-.116-.047-.173-.074a1.19 1.19 0 01-.323-.198c-.062-.053-.209-.1-.173-.174.101-.21.374-.296.496-.496.029-.047-.1-.05-.15-.074-.065-.033-.13-.07-.198-.1-.089-.037-.181-.067-.272-.099-.1-.034-.2-.062-.298-.099a2.607 2.607 0 01-.52-.248c-.036-.022-.067-.05-.1-.074-.07-.053-.114-.069-.149-.15-.013-.03-.034-.066-.025-.098.011-.038.156-.131.174-.15.034-.033.081-.123.074-.173-.004-.03-.033-.05-.05-.074-.016-.025-.03-.052-.049-.075-.072-.086-.094-.086-.198-.148-.083-.05-.164-.103-.248-.15-.098-.052-.198-.1-.298-.148-.523-.254-.64-.29-1.116-.57-.023-.014.048.024.074.024.026 0 .05-.014.075-.025.034-.014.064-.036.099-.05.032-.011.067-.012.1-.024.075-.03.145-.075.222-.1.056-.017.205.026.174-.024-.057-.093-.686-.516-.769-.57a9.068 9.068 0 00-.397-.248c-.13-.078-.264-.15-.397-.224-.132-.074-.266-.145-.397-.223-.118-.07-.231-.149-.347-.223-.009-.006-.636-.397-.645-.447-.015-.083.167-.028.248-.05.11-.028.215-.065.323-.098.107-.034.212-.078.322-.1.098-.02.339.066.298-.024-.096-.214-.35-.312-.521-.472-.176-.163-.348-.33-.52-.496a1.457 1.457 0 01-.224-.248 1.393 1.393 0 01-.174-.298.938.938 0 01-.05-.148 1.23 1.23 0 01-.024-.348c.004-.058-.027-.145.025-.173.073-.04.165.016.248.025.074.007.15.01.223.024.051.01.266.078.322.1.06.022.115.053.174.074.057.02.115.035.174.05.074.018.148.037.223.05.082.012.267.105.248.024-.036-.154-.22-.227-.323-.347a6.207 6.207 0 01-.272-.347 3.43 3.43 0 01-.397-.645 7.221 7.221 0 01-.224-.62c-.015-.053-.146-.529-.099-.596.027-.037.552-.074.57-.074.092 0 .183.017.274.025.099.008.2.007.297.024.093.017.182.051.273.075.1.026.2.044.298.074.175.053.383.142.545.224l.546.297c.086.053.166.116.248.174.083.058.17.11.248.173.161.128.316.263.471.397.258.223.714.633.943.868.139.143.263.3.397.447.122.134.255.258.372.397.107.126.2.264.298.397.22.296.323.42.496.744.064.12.122.245.173.372.049.121.04.272.124.372.116.136.292.207.447.297.202.119 1.1.563 1.265.645.248.124.494.252.744.372.263.128.531.243.794.372.275.136.544.283.818.422.264.134.534.255.794.397.236.13.963.574 1.24.769.145.102.282.213.422.322.358.28.386.294.694.62.16.17.319.344.471.521.104.12.17.277.298.372.082.062.198.05.298.075.099.025.198.048.297.074.092.024.181.055.273.075.098.02.199.032.298.05.29.048.577.107.868.148.296.042.596.062.893.1.29.036.578.086.868.123.289.037.58.059.868.1.241.033.48.08.72.123.597.11.68.127 1.264.273.191.048.383.093.57.15.374.111.491.177.844.346.134.064.247.122.372.199.051.031.103.061.15.099.044.037.08.084.123.124.115.109.231.215.347.323.02.018.585.54.62.57.121.103.245.203.373.298.433.322.58.397 1.041.694l1.141.744c.075.05.147.103.223.149.09.053.182.1.273.149.091.05.179.106.273.149.105.048.217.078.323.124.217.094.427.204.644.297.246.106.5.189.745.298.07.032.13.085.198.124.073.043.152.078.223.124.07.045.134.098.199.149.05.04.085.135.149.124.204-.035.393-.14.57-.248z"/><path fill="#444" d="M35.818 49.18a.093.093 0 100-.186.093.093 0 000 .186z"/></svg>